<svg width="130" height="130" viewBox="0 0 130 130" fill="none" xmlns="http://www.w3.org/2000/svg">
<path d="M121.908 73.7075C120.937 73.6211 120.102 73.3821 119.405 72.9906C118.712 72.5995 118.202 72.0874 117.874 71.4543C117.546 70.8212 117.417 70.1051 117.488 69.3062C117.558 68.5254 117.81 67.8501 118.245 67.2803C118.684 66.7109 119.273 66.2898 120.011 66.0169C120.753 65.7489 121.592 65.652 122.528 65.7262L123.243 65.7898C124.196 65.8747 125.024 66.1153 125.725 66.5117C126.426 66.9081 126.943 67.4254 127.275 68.0635C127.612 68.7065 127.745 69.4184 127.676 70.1992C127.605 70.9936 127.35 71.6755 126.911 72.2449C126.475 72.8192 125.878 73.2373 125.118 73.4991C124.362 73.7613 123.501 73.8493 122.534 73.7633L121.908 73.7075ZM122.664 72.464C123.839 72.5686 124.761 72.4127 125.43 71.9964C126.103 71.5805 126.477 70.9481 126.552 70.0992C126.626 69.273 126.368 68.5935 125.78 68.0607C125.195 67.5329 124.345 67.2125 123.23 67.0995L122.501 67.0346C121.362 66.9332 120.444 67.0917 119.748 67.5102C119.056 67.9336 118.673 68.5652 118.598 69.405C118.523 70.2493 118.771 70.9302 119.343 71.4478C119.919 71.9658 120.781 72.2827 121.928 72.3985L122.664 72.464Z" fill="#5C3525"/>
<path d="M124.024 83.2801L123.965 83.4838C123.753 84.2053 123.395 84.816 122.891 85.316C122.387 85.816 121.795 86.1459 121.114 86.3057C120.436 86.4711 119.735 86.4499 119.013 86.242C118.286 86.033 117.674 85.677 117.178 85.174C116.683 84.6711 116.353 84.0783 116.188 83.3956C116.028 82.7142 116.047 82.013 116.245 81.2921L116.311 81.0622L115.023 80.6919L115.374 79.4698L116.662 79.8401L116.714 79.6561C116.924 78.9246 117.282 78.3066 117.787 77.8022C118.291 77.3022 118.884 76.9702 119.567 76.806C120.248 76.6463 120.954 76.6716 121.686 76.8819C122.417 77.0922 123.029 77.446 123.522 77.9433C124.013 78.445 124.34 79.0416 124.501 79.733C124.662 80.4288 124.637 81.1425 124.427 81.874L124.374 82.058L125.728 82.4471L125.377 83.6693L124.024 83.2801ZM123.435 81.5887C123.672 80.7652 123.605 80.0395 123.235 79.4116C122.869 78.7893 122.236 78.349 121.339 78.0909C120.436 77.8314 119.665 77.868 119.024 78.2006C118.388 78.5345 117.949 79.1197 117.709 79.9564L117.66 80.1272L123.382 81.7727L123.435 81.5887ZM123.032 82.9948L117.309 81.3493L117.256 81.5333C117.016 82.3699 117.085 83.0963 117.463 83.7123C117.844 84.334 118.477 84.7721 119.362 85.0265C120.238 85.2784 121 85.2415 121.648 84.9158C122.295 84.5944 122.741 84.0067 122.986 83.1525L123.032 82.9948Z" fill="#5C3525"/>
<path d="M119.933 95.4704L119.333 96.638L110.481 92.0876L111.081 90.9199L117.902 94.4265L113.319 86.5593L113.921 85.3856L122.773 89.9361L122.171 91.1098L115.349 87.6032L119.933 95.4704Z" fill="#5C3525"/>
<path d="M117.046 100.337L116.24 101.381L109.216 95.9474L106.216 99.8317L113.239 105.265L112.437 106.304L105.435 100.887L104.796 101.715L102.103 99.4758L102.826 98.5399L104.723 100.008L109.174 94.2466L117.046 100.337Z" fill="#5C3525"/>
<path d="M105.362 113.165L104.385 114.041L97.7434 106.628L98.7204 105.751L103.838 111.464L102.369 102.478L103.351 101.597L109.992 109.01L109.01 109.891L103.892 104.179L105.362 113.165Z" fill="#5C3525"/>
<path d="M92.3796 113.294L95.9214 111.094L95.3474 108.392L96.4971 107.678L98.516 118.141L97.5406 118.747L89.0592 112.299L90.2031 111.589L92.3796 113.294ZM96.1541 112.221L93.28 114.007L97.1742 117.068L96.1541 112.221Z" fill="#5C3525"/>
<path d="M85.2279 124.601L81.5252 115.362L82.7432 114.873L86.0441 123.109L89.3557 121.78L88.0532 118.053C87.625 116.8 87.3823 115.827 87.3251 115.133C87.2637 114.441 87.3563 113.876 87.603 113.438C87.8515 113.004 88.2785 112.661 88.8841 112.408L89.2838 112.248L89.6831 113.244L89.4344 113.358C89.0529 113.546 88.8014 113.794 88.6798 114.103C88.5599 114.417 88.5441 114.843 88.6325 115.382C88.7209 115.921 88.9478 116.714 89.3133 117.76L90.9184 122.317L85.2279 124.601Z" fill="#5C3525"/>
<path d="M78.3549 122.274L75.9315 122.776C74.9112 122.973 74.0629 122.876 73.3866 122.485C72.7103 122.094 72.2819 121.462 72.1013 120.587C71.9198 119.708 72.0629 118.947 72.5308 118.306C72.9987 117.665 73.7285 117.232 74.72 117.009L78.4487 116.238L80.4612 125.985L79.1759 126.251L78.3549 122.274ZM78.1365 121.217L77.3804 117.555L75.0307 118.04C74.3925 118.172 73.9322 118.444 73.6496 118.857C73.3626 119.27 73.2781 119.762 73.396 120.333C73.5094 120.882 73.7706 121.279 74.1797 121.525C74.5843 121.772 75.1021 121.835 75.7332 121.714L78.1365 121.217Z" fill="#5C3525"/>
<path d="M63.1855 117.976L64.5042 117.935L64.6461 122.534L69.6613 122.379L69.5194 117.78L70.8312 117.74L71.1383 127.688L69.8264 127.729L69.6944 123.452L64.6792 123.607L64.8112 127.884L63.4925 127.925L63.1855 117.976Z" fill="#5C3525"/>
<path d="M58.2552 123.513L55.8176 123.086C54.7965 122.893 54.0434 122.491 53.5582 121.878C53.0731 121.266 52.9074 120.52 53.0612 119.64C53.2158 118.756 53.6285 118.102 54.2994 117.678C54.9703 117.254 55.8078 117.121 56.812 117.278L60.5626 117.934L58.8489 127.739L57.556 127.513L58.2552 123.513ZM58.4411 122.449L59.085 118.765L56.7215 118.352C56.0796 118.239 55.5515 118.323 55.1372 118.602C54.7184 118.88 54.4588 119.306 54.3584 119.881C54.2619 120.433 54.3586 120.899 54.6485 121.278C54.934 121.657 55.3924 121.906 56.0238 122.026L58.4411 122.449ZM51.0952 116.277L52.3881 116.503L50.6744 126.308L49.3815 126.082L51.0952 116.277Z" fill="#5C3525"/>
<path d="M40.1867 122.792L38.9651 122.313L42.5985 113.046L43.8202 113.526L41.0202 120.667L48.3823 115.318L49.6104 115.8L45.9769 125.066L44.7489 124.584L47.5488 117.443L40.1867 122.792ZM39.6269 125.231C39.8282 124.718 40.1665 124.373 40.6417 124.197C41.1109 124.024 41.6298 124.049 42.1982 124.273C42.7666 124.496 43.1653 124.834 43.3943 125.286C43.6232 125.738 43.6379 126.219 43.4383 126.728L42.4775 126.351C42.5939 126.054 42.6048 125.789 42.5102 125.556C42.4139 125.327 42.2109 125.152 41.9012 125.03C41.6043 124.913 41.3407 124.905 41.1104 125.006C40.8758 125.105 40.6995 125.305 40.5813 125.606L39.6269 125.231Z" fill="#5C3525"/>
<path d="M29.182 116.739L31.5728 108.321L24.0347 112.757L22.6884 111.715L28.7728 103.839L29.8109 104.642L27.4415 107.709L24.7868 110.945L32.298 106.566L33.0928 107.181L30.7576 115.538L33.1997 112.164L35.5691 109.097L36.6072 109.9L30.5229 117.777L29.182 116.739Z" fill="#5C3525"/>
<path d="M22.0061 100.115L24.7658 103.241L27.3317 102.223L28.2274 103.238L18.2556 106.981L17.4955 106.12L22.4321 96.6728L23.3233 97.6824L22.0061 100.115ZM23.6942 103.66L21.4548 101.123L19.0893 105.477L23.6942 103.66Z" fill="#5C3525"/>
<path d="M11.2664 95.5649L13.841 99.6146L21.3255 94.8487L22.0334 95.9621L13.6378 101.308L10.3553 96.145L11.2664 95.5649Z" fill="#5C3525"/>
<path d="M13.2312 85.0285L14.8831 88.8573L17.6386 88.6867L18.1748 89.9295L7.53259 90.3879L7.07763 89.3334L14.7058 81.8891L15.2393 83.1256L13.2312 85.0285ZM13.7346 88.9217L12.394 85.8147L8.79231 89.218L13.7346 88.9217Z" fill="#5C3525"/>
<path d="M5.96366 76.739C5.44994 76.8638 5.08815 77.151 4.87828 77.6006C4.66291 78.0468 4.63737 78.6087 4.80167 79.2864C4.93912 79.8533 5.21178 80.2912 5.61963 80.6002C6.02198 80.9058 6.45344 81.0027 6.91401 80.8908L7.22328 82.1664C6.70956 82.2911 6.21517 82.2635 5.74008 82.0834C5.26393 81.8989 4.85171 81.5816 4.50344 81.1315C4.15073 80.6825 3.90029 80.1524 3.7521 79.5412C3.49008 78.4606 3.53016 77.5621 3.87234 76.8459C4.21008 76.1308 4.81075 75.6684 5.67432 75.4587C6.12161 75.35 6.56233 75.3884 6.99648 75.5737C7.43063 75.7591 7.81359 76.0717 8.14535 76.5117C8.25024 75.281 8.86732 74.5285 9.99661 74.2543C10.8646 74.0435 11.6316 74.1996 12.2977 74.7225C12.9638 75.2455 13.4278 76.0473 13.6898 77.128C13.8455 77.7702 13.8744 78.3822 13.7763 78.9641C13.6727 79.5427 13.446 80.0292 13.0962 80.4237C12.7463 80.8181 12.2813 81.0858 11.7012 81.2267L11.3919 79.9511C11.9012 79.8275 12.2775 79.5227 12.5208 79.0369C12.7596 78.5521 12.8039 77.9997 12.6536 77.3796C12.485 76.6843 12.1891 76.1699 11.7659 75.8365C11.3417 75.4987 10.8639 75.3943 10.3324 75.5234C9.19873 75.7987 8.791 76.641 9.10927 78.0504L9.3992 79.2462L8.34963 79.5011L8.0613 78.3119C7.89124 77.6685 7.62643 77.2146 7.26689 76.9502C6.90736 76.6857 6.47294 76.6154 5.96366 76.739Z" fill="#5C3525"/>
<path d="M2.21678 67.2304L2.13083 65.9208L12.0625 65.2679L12.1485 66.5776L4.49507 67.0807L12.4695 71.4685L12.5559 72.785L2.62417 73.4378L2.53776 72.1213L10.1912 71.6182L2.21678 67.2304Z" fill="#5C3525"/>
<path d="M12.9367 55.367L12.7795 56.6769L8.21179 56.1282L7.6142 61.11L12.1819 61.6588L12.0256 62.962L2.14356 61.7747L2.29988 60.4716L6.54863 60.982L7.14621 56.0002L2.89746 55.4897L3.05459 54.1798L12.9367 55.367Z" fill="#5C3525"/>
<path d="M8.91446 39.0332L7.12921 43.4876L9.89516 44.5979L10.8158 42.3009C11.215 41.3415 11.7642 40.6878 12.4633 40.3399C13.1625 39.992 13.9265 39.9844 14.7555 40.3171C15.5886 40.6516 16.1433 41.1909 16.4194 41.9353C16.6955 42.6796 16.653 43.5268 16.2918 44.4769L14.8728 48.0176L5.63605 44.3099L7.91212 38.6308L8.91446 39.0332ZM10.8975 45.0002L14.3676 46.3932L15.2602 44.166C15.5027 43.561 15.5302 43.027 15.3427 42.5638C15.1569 42.0963 14.7933 41.754 14.252 41.5367C13.7318 41.3278 13.2562 41.326 12.8254 41.5312C12.3963 41.7322 12.058 42.1292 11.8105 42.7223L10.8975 45.0002Z" fill="#5C3525"/>
<path d="M15.7492 36.7874L19.0738 38.8195L18.3901 39.9399L9.89778 34.749L11.8101 31.6156C12.3775 30.6858 13.0586 30.1034 13.8535 29.8682C14.6508 29.6291 15.4402 29.7484 16.2218 30.2261C17.0461 30.73 17.524 31.3773 17.6554 32.168C17.7853 32.9525 17.5571 33.8251 16.9707 34.786L15.7492 36.7874ZM14.8335 36.2277L16.0621 34.2146C16.4277 33.6155 16.5678 33.0709 16.4826 32.5808C16.3934 32.0883 16.0824 31.6792 15.5497 31.3536C15.0442 31.0446 14.5425 30.9569 14.0445 31.0905C13.5465 31.2241 13.122 31.5655 12.7708 32.1147L11.5031 34.192L14.8335 36.2277Z" fill="#5C3525"/>
<path d="M22.6929 26.0904L19.8974 29.3754L22.582 31.6635L25.8293 27.8474L26.6462 28.5435L22.5483 33.3592L14.9731 26.9031L19.0267 22.1395L19.8487 22.84L16.6457 26.6041L19.0806 28.6793L21.876 25.3942L22.6929 26.0904Z" fill="#5C3525"/>
<path d="M33.572 22.3942L32.5616 23.2426L29.6057 19.7173L25.7633 22.9441L28.7193 26.4694L27.7142 27.3135L21.3192 19.6866L22.3243 18.8425L25.0738 22.1217L28.9162 18.8949L26.1667 15.6157L27.177 14.7673L33.572 22.3942Z" fill="#5C3525"/>
<path d="M45.091 18.3878L43.9503 19.0231L42.7643 16.8902L36.5233 20.3658L37.7125 22.5046L36.5659 23.1432L34.8491 20.0697L35.5598 19.6739C35.6993 19.0433 35.6815 18.3125 35.5062 17.4816C35.3328 16.6444 35.0381 15.7862 34.6221 14.9067L32.7436 11.0782L37.9455 8.18131L42.2607 15.9422L43.3954 15.3103L45.091 18.3878ZM36.8677 18.9455L41.1081 16.5841L37.3177 9.76719L34.3734 11.4069L35.6697 14.0338C36.1739 15.0624 36.5144 15.989 36.6914 16.8137C36.8724 17.6362 36.9311 18.3468 36.8677 18.9455Z" fill="#5C3525"/>
<path d="M49.0628 11.8523L45.1117 13.1852L45.0535 15.9464L43.771 16.379L44.1953 5.73165L45.2834 5.36454L52.0684 13.5799L50.7923 14.0103L49.0628 11.8523ZM45.1426 12.0349L48.3488 10.9533L45.2565 7.08346L45.1426 12.0349Z" fill="#5C3525"/>
<path d="M58.1844 12.5171L57.4562 2.59067L60.7013 2.3522C61.7785 2.27305 62.6038 2.43631 63.1774 2.84198C63.7555 3.24732 64.0765 3.88632 64.1405 4.75898C64.1746 5.22257 64.0729 5.64359 63.8357 6.02202C63.5981 6.39591 63.2592 6.69727 62.819 6.9261C63.3663 7.03668 63.81 7.29196 64.1501 7.69194C64.4944 8.08704 64.6879 8.57548 64.7305 9.15725C64.7959 10.0481 64.5586 10.7692 64.0188 11.3207C63.4789 11.8722 62.6817 12.1866 61.6273 12.2641L58.1844 12.5171ZM59.1528 7.77813L59.4149 11.3506L61.576 11.1918C62.1851 11.147 62.6531 10.955 62.98 10.6156C63.3112 10.2714 63.4564 9.82207 63.4158 9.26757C63.3281 8.07222 62.6343 7.5223 61.3344 7.61782L59.1528 7.77813ZM59.0757 6.72822L61.0528 6.58294C61.6255 6.54085 62.0718 6.36412 62.3916 6.05273C62.7161 5.74101 62.8603 5.33971 62.8242 4.84885C62.7842 4.30344 62.5961 3.9197 62.26 3.69765C61.9235 3.47105 61.4303 3.38163 60.7803 3.42939L58.8442 3.57166L59.0757 6.72822Z" fill="#5C3525"/>
<path d="M73.79 8.92798L73.0898 12.761L71.7987 12.5248L73.5873 2.73372L77.1983 3.3944C78.2697 3.59043 79.0581 4.01728 79.5633 4.67494C80.0731 5.33343 80.2457 6.11323 80.081 7.01433C79.9074 7.96475 79.4754 8.64319 78.785 9.04966C78.0999 9.45246 77.2037 9.55257 76.0964 9.34998L73.79 8.92798ZM73.9829 7.87221L76.3028 8.29667C76.9931 8.42298 77.5516 8.35838 77.9781 8.10285C78.4055 7.84284 78.6753 7.40574 78.7875 6.79156C78.894 6.20876 78.7954 5.70888 78.4916 5.29195C78.1879 4.87501 77.7168 4.60117 77.0782 4.47043L74.6843 4.03243L73.9829 7.87221Z" fill="#5C3525"/>
<path d="M88.1696 12.2713C87.8306 13.1858 87.3806 13.9278 86.8196 14.4973C86.2601 15.0625 85.6319 15.4199 84.9349 15.5695C84.2379 15.7191 83.5134 15.6543 82.7615 15.3752C82.0266 15.1024 81.4416 14.681 81.0064 14.1111C80.5728 13.537 80.3215 12.8579 80.2524 12.0739C80.1892 11.2872 80.3165 10.4522 80.6342 9.56871L80.8837 8.89568C81.2163 7.99831 81.6661 7.26352 82.2329 6.69132C82.7998 6.11912 83.4347 5.75688 84.1376 5.60461C84.8463 5.44965 85.5681 5.50857 86.3029 5.78137C87.0506 6.05894 87.6412 6.4848 88.0748 7.05897C88.5143 7.63045 88.7603 8.31728 88.8129 9.11947C88.8671 9.91737 88.7255 10.7714 88.3881 11.6816L88.1696 12.2713ZM87.1688 11.2144C87.5791 10.1076 87.6713 9.17692 87.4456 8.42227C87.2214 7.66334 86.7098 7.13558 85.9109 6.83899C85.1333 6.55032 84.4102 6.61971 83.7414 7.04715C83.0785 7.47189 82.5458 8.20749 82.1434 9.25394L81.8891 9.93979C81.4916 11.0124 81.4031 11.9396 81.6236 12.7215C81.85 13.5007 82.3584 14.037 83.1487 14.3304C83.9434 14.6254 84.6655 14.5653 85.3152 14.1502C85.9663 13.7309 86.4987 12.983 86.9123 11.9066L87.1688 11.2144Z" fill="#5C3525"/>
<path d="M96.48 18.559C95.842 19.4053 95.0949 19.9103 94.2387 20.074C93.3888 20.236 92.4959 20.0428 91.5602 19.4942C90.5459 18.8996 89.945 18.0587 89.7576 16.9715C89.5741 15.8866 89.8392 14.7346 90.5529 13.5153L91.0363 12.6894C91.5037 11.891 92.0561 11.2719 92.6937 10.8321C93.3353 10.3947 94.0118 10.168 94.7235 10.152C95.4375 10.1321 96.1385 10.3238 96.8265 10.7272C97.7386 11.2619 98.3202 11.9462 98.5713 12.7802C98.8248 13.6103 98.7331 14.5021 98.2963 15.4558L97.1582 14.7886C97.4605 14.0466 97.5363 13.4254 97.3856 12.925C97.2388 12.4269 96.8706 12.005 96.2809 11.6593C95.5575 11.2352 94.8328 11.1696 94.1069 11.4625C93.385 11.7577 92.7351 12.3989 92.1572 13.3861L91.6703 14.218C91.1247 15.1501 90.8854 16.0056 90.9523 16.7844C91.0192 17.5632 91.4026 18.1577 92.1024 18.568C92.7314 18.9367 93.2959 19.0775 93.7958 18.9902C94.302 18.9013 94.8173 18.5352 95.3418 17.8918L96.48 18.559Z" fill="#5C3525"/>
<path d="M103.904 24.5846C103.133 25.3121 102.312 25.6849 101.44 25.7029C100.575 25.7203 99.7275 25.3802 98.8969 24.6827C97.9965 23.9266 97.5449 22.9969 97.5422 21.8936C97.5429 20.7933 97.9972 19.7018 98.9049 18.6193L99.5198 17.8859C100.114 17.177 100.762 16.6592 101.465 16.3324C102.17 16.0085 102.875 15.8983 103.58 16.0018C104.287 16.1017 104.946 16.4081 105.556 16.921C106.366 17.601 106.825 18.3731 106.933 19.2374C107.044 20.0982 106.804 20.9621 106.214 21.8292L105.203 20.9808C105.626 20.2999 105.804 19.7001 105.74 19.1816C105.678 18.6659 105.386 18.1883 104.863 17.7487C104.22 17.2094 103.517 17.0234 102.752 17.1906C101.991 17.3607 101.243 17.884 100.508 18.7606L99.8889 19.4992C99.1949 20.3268 98.8157 21.1301 98.7513 21.9092C98.6868 22.6882 98.9652 23.3386 99.5864 23.8603C100.145 24.3292 100.678 24.5625 101.185 24.5602C101.699 24.5573 102.268 24.2826 102.893 23.7361L103.904 24.5846Z" fill="#5C3525"/>
<path d="M114.331 26.1617L115.174 27.1674L107.552 33.5683L106.709 32.5625L112.583 27.63L103.56 28.8067L102.712 27.7957L110.334 21.3949L111.182 22.4059L105.308 27.3384L114.331 26.1617Z" fill="#5C3525"/>
<path d="M120.596 35.8194L121.242 36.9618L112.582 41.8684L111.936 40.726L118.609 36.945L109.523 36.46L108.873 35.3117L117.533 30.4051L118.183 31.5534L111.509 35.3344L120.596 35.8194Z" fill="#5C3525"/>
</svg>
